<svg width="79" height="16" viewBox="0 0 79 16" fill="none" xmlns="http://www.w3.org/2000/svg">
<path d="M0.819425 2.01705V0.454545H11.7285V2.01705H7.15465V15H5.39329V2.01705H0.819425ZM14.4469 15V0.454545H23.2253V2.01705H16.2083V6.93182H22.7708V8.49432H16.2083V13.4375H23.339V15H14.4469ZM34.3546 4.09091C34.2694 3.37121 33.9237 2.8125 33.3176 2.41477C32.7116 2.01705 31.9682 1.81818 31.0875 1.81818C30.4436 1.81818 29.8801 1.92235 29.3972 2.13068C28.919 2.33901 28.5449 2.62547 28.275 2.99006C28.0099 3.35464 27.8773 3.76894 27.8773 4.23295C27.8773 4.62121 27.9696 4.95502 28.1543 5.23438C28.3437 5.509 28.5852 5.73864 28.8787 5.9233C29.1723 6.10322 29.4801 6.25237 29.802 6.37074C30.124 6.48437 30.4199 6.5767 30.6898 6.64773L32.1671 7.04545C32.5459 7.14489 32.9673 7.2822 33.4313 7.45739C33.9 7.63258 34.3475 7.87169 34.7736 8.17472C35.2045 8.47301 35.5596 8.85653 35.839 9.32528C36.1183 9.79403 36.258 10.3693 36.258 11.0511C36.258 11.8371 36.052 12.5473 35.6401 13.1818C35.2329 13.8163 34.6363 14.3205 33.8503 14.6946C33.0691 15.0687 32.1197 15.2557 31.0023 15.2557C29.9606 15.2557 29.0587 15.0876 28.2963 14.7514C27.5388 14.4152 26.9422 13.9465 26.5066 13.3452C26.0757 12.7438 25.8319 12.0455 25.775 11.25H27.5932C27.6406 11.7992 27.8252 12.2538 28.1472 12.6136C28.4739 12.9687 28.8858 13.2339 29.383 13.4091C29.8849 13.5795 30.4247 13.6648 31.0023 13.6648C31.6747 13.6648 32.2784 13.5559 32.8134 13.3381C33.3484 13.1155 33.7722 12.8078 34.0847 12.4148C34.3972 12.017 34.5534 11.553 34.5534 11.0227C34.5534 10.5398 34.4185 10.1468 34.1486 9.84375C33.8787 9.54072 33.5236 9.29451 33.0833 9.10511C32.6429 8.91572 32.1671 8.75 31.6557 8.60795L29.8659 8.09659C28.7296 7.76989 27.83 7.3035 27.1671 6.69744C26.5042 6.09138 26.1728 5.2983 26.1728 4.31818C26.1728 3.50379 26.3929 2.79356 26.8333 2.1875C27.2783 1.5767 27.8749 1.10322 28.623 0.767045C29.3759 0.426136 30.2163 0.255681 31.1444 0.255681C32.0819 0.255681 32.9152 0.423768 33.6444 0.759943C34.3735 1.09138 34.9512 1.54593 35.3773 2.12358C35.8082 2.70123 36.0355 3.35701 36.0591 4.09091H34.3546ZM38.3585 2.01705V0.454545H49.2676V2.01705H44.6937V15H42.9324V2.01705H38.3585Z" fill="black"/>
<path d="M0.819425 2.01705V0.454545H11.7285V2.01705H7.15465V15H5.39329V2.01705H0.819425ZM14.4469 15V0.454545H23.2253V2.01705H16.2083V6.93182H22.7708V8.49432H16.2083V13.4375H23.339V15H14.4469ZM34.3546 4.09091C34.2694 3.37121 33.9237 2.8125 33.3176 2.41477C32.7116 2.01705 31.9682 1.81818 31.0875 1.81818C30.4436 1.81818 29.8801 1.92235 29.3972 2.13068C28.919 2.33901 28.5449 2.62547 28.275 2.99006C28.0099 3.35464 27.8773 3.76894 27.8773 4.23295C27.8773 4.62121 27.9696 4.95502 28.1543 5.23438C28.3437 5.509 28.5852 5.73864 28.8787 5.9233C29.1723 6.10322 29.4801 6.25237 29.802 6.37074C30.124 6.48437 30.4199 6.5767 30.6898 6.64773L32.1671 7.04545C32.5459 7.14489 32.9673 7.2822 33.4313 7.45739C33.9 7.63258 34.3475 7.87169 34.7736 8.17472C35.2045 8.47301 35.5596 8.85653 35.839 9.32528C36.1183 9.79403 36.258 10.3693 36.258 11.0511C36.258 11.8371 36.052 12.5473 35.6401 13.1818C35.2329 13.8163 34.6363 14.3205 33.8503 14.6946C33.0691 15.0687 32.1197 15.2557 31.0023 15.2557C29.9606 15.2557 29.0587 15.0876 28.2963 14.7514C27.5388 14.4152 26.9422 13.9465 26.5066 13.3452C26.0757 12.7438 25.8319 12.0455 25.775 11.25H27.5932C27.6406 11.7992 27.8252 12.2538 28.1472 12.6136C28.4739 12.9687 28.8858 13.2339 29.383 13.4091C29.8849 13.5795 30.4247 13.6648 31.0023 13.6648C31.6747 13.6648 32.2784 13.5559 32.8134 13.3381C33.3484 13.1155 33.7722 12.8078 34.0847 12.4148C34.3972 12.017 34.5534 11.553 34.5534 11.0227C34.5534 10.5398 34.4185 10.1468 34.1486 9.84375C33.8787 9.54072 33.5236 9.29451 33.0833 9.10511C32.6429 8.91572 32.1671 8.75 31.6557 8.60795L29.8659 8.09659C28.7296 7.76989 27.83 7.3035 27.1671 6.69744C26.5042 6.09138 26.1728 5.2983 26.1728 4.31818C26.1728 3.50379 26.3929 2.79356 26.8333 2.1875C27.2783 1.5767 27.8749 1.10322 28.623 0.767045C29.3759 0.426136 30.2163 0.255681 31.1444 0.255681C32.0819 0.255681 32.9152 0.423768 33.6444 0.759943C34.3735 1.09138 34.9512 1.54593 35.3773 2.12358C35.8082 2.70123 36.0355 3.35701 36.0591 4.09091H34.3546ZM38.3585 2.01705V0.454545H49.2676V2.01705H44.6937V15H42.9324V2.01705H38.3585Z" fill="#C61414" fill-opacity="0.2"/>
<path d="M63.5201 0.454545V15H61.8155L53.8894 3.57955H53.7473V15H51.986V0.454545H53.6905L61.6451 11.9034H61.7871V0.454545H63.5201Z" fill="#C61414"/>
<path d="M76.9877 5C76.8315 4.52178 76.6255 4.09328 76.3699 3.71449C76.1189 3.33097 75.8182 3.00426 75.4679 2.73438C75.1222 2.46449 74.7292 2.25852 74.2889 2.11648C73.8485 1.97443 73.3656 1.90341 72.84 1.90341C71.9783 1.90341 71.1947 2.12595 70.4892 2.57102C69.7837 3.0161 69.2226 3.67188 68.8059 4.53835C68.3893 5.40483 68.1809 6.4678 68.1809 7.72727C68.1809 8.98674 68.3916 10.0497 68.813 10.9162C69.2344 11.7827 69.805 12.4384 70.5247 12.8835C71.2444 13.3286 72.054 13.5511 72.9537 13.5511C73.787 13.5511 74.5209 13.3736 75.1554 13.0185C75.7946 12.6586 76.2917 12.152 76.6468 11.4986C77.0067 10.8404 77.1866 10.0663 77.1866 9.17614L77.7264 9.28977H73.3514V7.72727H78.8912V9.28977C78.8912 10.4877 78.6355 11.5294 78.1241 12.4148C77.6175 13.3002 76.9167 13.9867 76.0218 14.4744C75.1317 14.9574 74.109 15.1989 72.9537 15.1989C71.6658 15.1989 70.5342 14.8958 69.5588 14.2898C68.5881 13.6837 67.8306 12.822 67.286 11.7045C66.7463 10.5871 66.4764 9.26136 66.4764 7.72727C66.4764 6.5767 66.6303 5.54214 66.938 4.62358C67.2505 3.70028 67.6909 2.9143 68.2591 2.26562C68.8272 1.61695 69.4996 1.11979 70.2761 0.774148C71.0526 0.428503 71.9073 0.255681 72.84 0.255681C73.6071 0.255681 74.322 0.371685 74.9849 0.603693C75.6525 0.830965 76.2467 1.1553 76.7676 1.5767C77.2931 1.99337 77.7311 2.4929 78.0815 3.07528C78.4319 3.65294 78.6734 4.29451 78.8059 5H76.9877Z" fill="#FFC001"/>
</svg>
